<svg width="25" height="24" viewBox="0 0 25 24" fill="none" xmlns="http://www.w3.org/2000/svg">
<path d="M19.0859 10.5V18.8344C19.0859 19.0109 19.0158 19.1802 18.891 19.305C18.7662 19.4299 18.5968 19.5 18.4203 19.5H4.08594C3.88703 19.5 3.69626 19.421 3.55561 19.2803C3.41496 19.1397 3.33594 18.9489 3.33594 18.75V8.25C3.33594 8.05109 3.41496 7.86032 3.55561 7.71967C3.69626 7.57902 3.88703 7.5 4.08594 7.5H8.33281C8.49498 7.50067 8.65268 7.55323 8.78281 7.65L11.3891 9.6C11.5192 9.69677 11.6769 9.74933 11.8391 9.75H18.3359C18.5348 9.75 18.7256 9.82902 18.8663 9.96967C19.0069 10.1103 19.0859 10.3011 19.0859 10.5Z" stroke="#00000A" stroke-linecap="round" stroke-linejoin="round"/>
<path d="M19.0859 10.5V18.8344C19.0859 19.0109 19.0158 19.1802 18.891 19.305C18.7662 19.4299 18.5968 19.5 18.4203 19.5H4.08594C3.88703 19.5 3.69626 19.421 3.55561 19.2803C3.41496 19.1397 3.33594 18.9489 3.33594 18.75V8.25C3.33594 8.05109 3.41496 7.86032 3.55561 7.71967C3.69626 7.57902 3.88703 7.5 4.08594 7.5H8.33281C8.49498 7.50067 8.65268 7.55323 8.78281 7.65L11.3891 9.6C11.5192 9.69677 11.6769 9.74933 11.8391 9.75H18.3359C18.5348 9.75 18.7256 9.82902 18.8663 9.96967C19.0069 10.1103 19.0859 10.3011 19.0859 10.5Z" stroke="#00000A" stroke-linecap="round" stroke-linejoin="round"/>
<path d="M6.33594 7.5V5.25C6.33594 5.05109 6.41496 4.86032 6.55561 4.71967C6.69626 4.57902 6.88703 4.5 7.08594 4.5H11.3328C11.495 4.50067 11.6527 4.55323 11.7828 4.65L14.3891 6.6C14.5192 6.69677 14.6769 6.74933 14.8391 6.75H21.3359C21.5348 6.75 21.7256 6.82902 21.8663 6.96967C22.0069 7.11032 22.0859 7.30109 22.0859 7.5V15.8344C22.0859 16.0109 22.0158 16.1802 21.891 16.305C21.7662 16.4299 21.5968 16.5 21.4203 16.5H19.0859" stroke="#00000A" stroke-linecap="round" stroke-linejoin="round"/>
</svg>
