<svg width="21" height="20" viewBox="0 0 21 20" fill="none" xmlns="http://www.w3.org/2000/svg">
<rect x="1" y="0.5" width="19" height="19" rx="9.5" stroke="white"/>
<path fill-rule="evenodd" clip-rule="evenodd" d="M5.875 10C5.875 9.72386 6.09886 9.5 6.375 9.5H14.625C14.9011 9.5 15.125 9.72386 15.125 10C15.125 10.2761 14.9011 10.5 14.625 10.5H6.375C6.09886 10.5 5.875 10.2761 5.875 10Z" fill="white"/>
<path fill-rule="evenodd" clip-rule="evenodd" d="M10.8964 6.27145C11.0917 6.07618 11.4083 6.07618 11.6036 6.27145L14.9786 9.64645C15.1738 9.84171 15.1738 10.1583 14.9786 10.3536L11.6036 13.7286C11.4083 13.9238 11.0917 13.9238 10.8964 13.7286C10.7012 13.5333 10.7012 13.2167 10.8964 13.0214L13.9179 10L10.8964 6.97855C10.7012 6.78329 10.7012 6.46671 10.8964 6.27145Z" fill="white"/>
</svg>
